<svg width="30" height="30" viewBox="0 0 30 30" fill="none" xmlns="http://www.w3.org/2000/svg">
<path d="M24.9437 8.33754C22.977 6.37086 20.4713 5.03153 17.7435 4.48892C15.0156 3.94631 12.1881 4.2248 9.61851 5.28916C7.04892 6.35352 4.85265 8.15595 3.30744 10.4685C1.76224 12.7811 0.937491 15.5 0.9375 18.2813V23.4375H9.375V21.5625H2.8125V18.2813C2.8125 11.5611 8.27982 6.09375 15 6.09375C21.7202 6.09375 27.1875 11.5611 27.1875 18.2813V21.5625H20.625V23.4375H29.0625V18.2813C29.0675 16.4338 28.7061 14.6037 27.9991 12.8968C27.2921 11.19 26.2536 9.64034 24.9437 8.33754Z" fill="black"/>
<path d="M4.6875 15.4688H6.5625V17.3438H4.6875V15.4688ZM14.0625 7.5H15.9375V9.375H14.0625V7.5ZM7.96875 9.84375H9.84375V11.7188H7.96875V9.84375ZM23.4375 15.4688H25.3125V17.3438H23.4375V15.4688ZM17.4154 19.6348L21.47 11.1871L19.7796 10.3757L15.7259 18.8211C14.8286 18.6423 13.897 18.797 13.1056 19.2561C12.3142 19.7152 11.7175 20.4472 11.4273 21.3149C11.1371 22.1826 11.1734 23.1263 11.5293 23.9691C11.8853 24.812 12.5365 25.496 13.3608 25.893C14.1851 26.29 15.1259 26.3726 16.0068 26.1255C16.8876 25.8783 17.6481 25.3183 18.1456 24.5505C18.6431 23.7826 18.8434 22.8597 18.7089 21.9547C18.5745 21.0497 18.1146 20.2248 17.4154 19.6348ZM15 24.375C14.6292 24.375 14.2666 24.265 13.9583 24.059C13.65 23.853 13.4096 23.5601 13.2677 23.2175C13.1258 22.8749 13.0887 22.4979 13.161 22.1342C13.2334 21.7705 13.412 21.4364 13.6742 21.1742C13.9364 20.912 14.2705 20.7334 14.6342 20.661C14.9979 20.5887 15.3749 20.6258 15.7175 20.7677C16.0601 20.9096 16.353 21.15 16.559 21.4583C16.765 21.7666 16.875 22.1292 16.875 22.5C16.8744 22.9971 16.6767 23.4737 16.3252 23.8252C15.9737 24.1767 15.4971 24.3744 15 24.375Z" fill="black"/>
</svg>
