<svg width="27" height="30" viewBox="0 0 27 30" fill="none" xmlns="http://www.w3.org/2000/svg">
<path fill-rule="evenodd" clip-rule="evenodd" d="M18.4763 13.3988C18.5636 13.4858 18.6328 13.5893 18.6801 13.7032C18.7274 13.8171 18.7517 13.9392 18.7517 14.0625C18.7517 14.1858 18.7274 14.3079 18.6801 14.4218C18.6328 14.5357 18.5636 14.6392 18.4763 14.7263L12.8513 20.3513C12.7642 20.4386 12.6607 20.5078 12.5468 20.5551C12.4329 20.6023 12.3108 20.6267 12.1875 20.6267C12.0642 20.6267 11.9421 20.6023 11.8282 20.5551C11.7143 20.5078 11.6109 20.4386 11.5238 20.3513L8.71127 17.5388C8.62411 17.4516 8.55497 17.3481 8.50779 17.2342C8.46062 17.1203 8.43634 16.9983 8.43634 16.875C8.43634 16.7517 8.46062 16.6297 8.50779 16.5158C8.55497 16.4019 8.62411 16.2984 8.71127 16.2113C8.88731 16.0352 9.12607 15.9363 9.37502 15.9363C9.49829 15.9363 9.62036 15.9606 9.73424 16.0078C9.84813 16.0549 9.95161 16.1241 10.0388 16.2113L12.1875 18.3619L17.1488 13.3988C17.2359 13.3114 17.3393 13.2422 17.4532 13.1949C17.5671 13.1477 17.6892 13.1233 17.8125 13.1233C17.9358 13.1233 18.0579 13.1477 18.1718 13.1949C18.2857 13.2422 18.3892 13.3114 18.4763 13.3988Z" fill="black"/>
<path d="M5.625 2.8125H3.75C2.75544 2.8125 1.80161 3.20759 1.09835 3.91085C0.395088 4.61411 0 5.56794 0 6.5625V26.25C0 27.2446 0.395088 28.1984 1.09835 28.9016C1.80161 29.6049 2.75544 30 3.75 30H22.5C23.4946 30 24.4484 29.6049 25.1516 28.9016C25.8549 28.1984 26.25 27.2446 26.25 26.25V6.5625C26.25 5.56794 25.8549 4.61411 25.1516 3.91085C24.4484 3.20759 23.4946 2.8125 22.5 2.8125H20.625V4.6875H22.5C22.9973 4.6875 23.4742 4.88504 23.8258 5.23667C24.1775 5.58831 24.375 6.06522 24.375 6.5625V26.25C24.375 26.7473 24.1775 27.2242 23.8258 27.5758C23.4742 27.9275 22.9973 28.125 22.5 28.125H3.75C3.25272 28.125 2.77581 27.9275 2.42417 27.5758C2.07254 27.2242 1.875 26.7473 1.875 26.25V6.5625C1.875 6.06522 2.07254 5.58831 2.42417 5.23667C2.77581 4.88504 3.25272 4.6875 3.75 4.6875H5.625V2.8125Z" fill="black"/>
<path d="M15.9375 1.875C16.1861 1.875 16.4246 1.97377 16.6004 2.14959C16.7762 2.3254 16.875 2.56386 16.875 2.8125V4.6875C16.875 4.93614 16.7762 5.1746 16.6004 5.35041C16.4246 5.52623 16.1861 5.625 15.9375 5.625H10.3125C10.0639 5.625 9.8254 5.52623 9.64959 5.35041C9.47377 5.1746 9.375 4.93614 9.375 4.6875V2.8125C9.375 2.56386 9.47377 2.3254 9.64959 2.14959C9.8254 1.97377 10.0639 1.875 10.3125 1.875H15.9375ZM10.3125 0C9.56658 0 8.85121 0.296316 8.32376 0.823762C7.79632 1.35121 7.5 2.06658 7.5 2.8125V4.6875C7.5 5.43342 7.79632 6.14879 8.32376 6.67624C8.85121 7.20368 9.56658 7.5 10.3125 7.5H15.9375C16.6834 7.5 17.3988 7.20368 17.9262 6.67624C18.4537 6.14879 18.75 5.43342 18.75 4.6875V2.8125C18.75 2.06658 18.4537 1.35121 17.9262 0.823762C17.3988 0.296316 16.6834 0 15.9375 0L10.3125 0Z" fill="black"/>
</svg>
