<svg width="271" height="209" viewBox="0 0 271 209" fill="none" xmlns="http://www.w3.org/2000/svg">
<path opacity="0.5" d="M228.568 23.3795H223.489V23.8795L223.489 24.0359H228.568V23.5359L228.568 23.3795ZM221.457 23.5359V24.0359H216.379L216.379 23.8795V23.3795H221.457L221.457 23.5359ZM214.347 23.5359V24.0359H209.269L209.269 23.8795V23.3795H214.347L214.347 23.5359ZM207.237 23.5359V24.0359H202.158L202.158 23.8795V23.3795H207.237L207.237 23.5359ZM200.127 23.5359V24.0359H195.048L195.048 23.8795L195.048 23.5359L195.048 23.3795H200.127L200.127 23.5359ZM193.017 23.8795L193.017 24.0359H187.938L187.938 23.8795L187.938 23.5359L187.938 23.3795H193.017L193.017 23.5359L193.017 23.8795ZM185.906 23.8795L185.906 24.0359H180.828V23.8795V23.5359V23.3795H185.906L185.906 23.5359L185.906 23.8795ZM178.796 23.8795V24.0359H173.718V23.8795V23.5359V23.3795H178.796V23.5359V23.8795ZM171.686 23.8795L171.686 24.0359H166.607L166.607 23.8795L166.607 23.5359L166.607 23.3795H171.686L171.686 23.5359L171.686 23.8795ZM164.576 23.8795L164.576 24.0359H159.497L159.497 23.8795L159.497 23.5359L159.497 23.3795H164.576L164.576 23.5359L164.576 23.8795ZM157.466 23.8795L157.466 24.0359H152.387V23.5359L152.387 23.3795H157.466V23.8795ZM150.356 23.8795L150.356 24.0359H145.277V23.5359L145.277 23.3795H150.356V23.8795ZM143.245 23.8795L143.245 24.0359H138.167V23.5359H138.167V23.3795H143.245V23.8795ZM136.135 23.8795L136.135 24.0359H131.056V23.5359H131.056V23.3795H136.135V23.8795ZM129.025 23.8795L129.025 24.0359H123.946V23.5359L123.946 23.3795H129.025V23.8795ZM121.915 23.8795L121.915 24.0359H116.836V23.5359L116.836 23.3795H121.915V23.8795ZM114.805 23.8795V24.0359H109.726V23.5359L109.726 23.3795H114.805V23.8795H114.805ZM107.694 23.8795V24.0359H102.616V23.5359L102.616 23.3795H107.694V23.8795H107.694ZM100.584 23.8795V24.0359H95.5055V23.5359L95.5054 23.3795H100.584V23.8795H100.584ZM93.4739 23.8795L93.474 24.0359H88.3953V23.5359L88.3952 23.3795H93.4739V23.8795ZM86.3638 23.8795L86.3638 24.0359H81.2851L81.2851 23.8795L81.2851 23.5359L81.2851 23.3795H86.3638V23.8795ZM79.2536 23.8795L79.2536 24.0359H74.1749V23.5359L74.1749 23.3795H79.2536V23.8795ZM72.1434 23.8795L72.1434 24.0359H67.0647V23.8795V23.5359V23.3795H72.1434V23.8795ZM65.0332 23.5359V24.0359H59.9545L59.9545 23.8795L59.9545 23.5359L59.9545 23.3795H65.0332L65.0332 23.5359ZM57.923 23.5359V24.0359H52.8443L52.8443 23.8795V23.3795H57.923L57.923 23.5359ZM50.8128 23.5359V24.0359H45.7341V23.8795H45.7341V23.3795H50.8128L50.8128 23.5359ZM43.7026 23.5359V24.0359H38.6239V23.8795H38.6239V23.3795H43.7027V23.5359H43.7026ZM36.5924 23.5359V24.0359H31.5137V23.8795H31.5138V23.3795H36.5925V23.5359H36.5924ZM29.4822 23.5359V24.0359H24.4035V23.8795H24.4036V23.3795H29.4823V23.5359H29.4822ZM22.372 23.5359V24.0359H17.2933V23.8795H17.2934V23.3795H22.3721V23.5359H22.372Z" stroke="#FABB11" stroke-dasharray="2 5"/>
<path opacity="0.5" d="M27.5735 40.0164C15.8914 45.2649 4.32053 53.4657 -5.47021 61.3385V209H270.896V6.88506C265.555 1.63654 257.767 0.761786 254.541 0.980474C234.514 2.2926 248.143 26.5829 221.849 28.5546C200.427 30.1611 200.738 34.8769 197.966 38.8077C192.292 48.9767 188.583 47.8776 186.024 48.5452C166.999 48.5452 158.814 28.4696 144.395 30.8314C129.976 33.1933 124.368 32.4716 123.033 31.4875C118.583 28.9726 105.646 21.9373 94.6624 24.5988C83.7613 27.2404 75.94 51.7882 62.6199 48.5452C34.9166 32.6632 33.9153 37.7201 27.5735 40.0164Z" fill="url(#paint0_linear_380_2399)"/>
<path d="M27.5735 40.977C15.8914 46.3546 4.32053 54.7571 -5.47021 62.8234V158.705H270.896V7.031C265.555 1.65341 257.767 0.757148 254.541 0.981214C234.514 2.32561 248.143 27.2132 221.849 29.2334C200.427 30.8794 200.738 35.7111 197.966 39.7386C192.292 50.1576 188.583 49.0316 186.024 49.7156C166.999 49.7156 158.814 29.1463 144.395 31.5662C129.976 33.9861 124.368 33.2467 123.033 32.2384C118.583 29.6617 105.646 22.4533 94.6624 25.1803C83.7613 27.8869 75.94 53.0383 62.6199 49.7156C34.9166 33.443 33.9153 38.6243 27.5735 40.977Z" fill="url(#paint1_linear_380_2399)"/>
<g filter="url(#filter0_d_380_2399)">
<path d="M-25 64.6294C28.7992 64.6294 -2.06154 28.9555 32.1156 28.9555C60.1207 28.9555 49.4346 6.47773 72.2808 12.005C95.1271 17.5323 95.864 3.16134 114.288 12.005C137.445 23.1203 137.872 17.9008 161.086 13.479" stroke="#FA6393" stroke-width="2.8072" stroke-linecap="round"/>
</g>
<circle cx="162.929" cy="11.6365" r="3.10602" fill="#F2F6F9" stroke="#FA6393" stroke-width="3.36864"/>
<path d="M8.90095 20.7542L9.48006 22.5366L11.3541 22.5366L9.83798 23.6381L10.4171 25.4204L8.90095 24.3189L7.38481 25.4204L7.96392 23.6381L6.44778 22.5366L8.32183 22.5366L8.90095 20.7542Z" fill="#FA6393"/>
<defs>
<filter id="filter0_d_380_2399" x="-32.018" y="3.15597" width="197.877" height="67.3685" filterUnits="userSpaceOnUse" color-interpolation-filters="sRGB">
<feFlood flood-opacity="0" result="BackgroundImageFix"/>
<feColorMatrix in="SourceAlpha" type="matrix" values="0 0 0 0 0 0 0 0 0 0 0 0 0 0 0 0 0 0 127 0" result="hardAlpha"/>
<feOffset dx="-1.12288"/>
<feGaussianBlur stdDeviation="2.24576"/>
<feColorMatrix type="matrix" values="0 0 0 0 0.100179 0 0 0 0 0.0252084 0 0 0 0 0.55 0 0 0 0.1 0"/>
<feBlend mode="normal" in2="BackgroundImageFix" result="effect1_dropShadow_380_2399"/>
<feBlend mode="normal" in="SourceGraphic" in2="effect1_dropShadow_380_2399" result="shape"/>
</filter>
<linearGradient id="paint0_linear_380_2399" x1="133.081" y1="-6.2425" x2="133.257" y2="87.9839" gradientUnits="userSpaceOnUse">
<stop stop-color="#FFBDBD"/>
<stop offset="1" stop-color="#FFBDBD" stop-opacity="0"/>
</linearGradient>
<linearGradient id="paint1_linear_380_2399" x1="133.081" y1="-6.41938" x2="133.375" y2="147.753" gradientUnits="userSpaceOnUse">
<stop stop-color="#FFBDBD"/>
<stop offset="1" stop-color="#E0EBFB" stop-opacity="0"/>
</linearGradient>
</defs>
</svg>
