<svg width="68" height="41" viewBox="0 0 68 41" fill="none" xmlns="http://www.w3.org/2000/svg">
<rect x="0.247803" y="11" width="67.2609" height="30" rx="3" fill="#E9E9E9"/>
<rect x="14.6609" width="38.4348" height="38" rx="3" fill="#E9E9E9"/>
<rect x="30.0348" y="4" width="7.68696" height="20" rx="2" fill="#CF3E3E"/>
<rect x="24.2695" y="10" width="19.2174" height="8" rx="2" fill="#CF3E3E"/>
<rect x="4.09131" y="18" width="5.76522" height="6" rx="1" fill="#969696"/>
<rect x="11.7783" y="18" width="5.76522" height="6" rx="1" fill="#969696"/>
<rect x="11.7783" y="26" width="5.76522" height="6" rx="1" fill="#969696"/>
<rect x="4.09131" y="26" width="5.76522" height="6" rx="1" fill="#969696"/>
<rect x="50.213" y="18" width="5.76522" height="6" rx="1" fill="#969696"/>
<rect x="57.9" y="18" width="5.76522" height="6" rx="1" fill="#969696"/>
<rect x="57.9" y="26" width="5.76522" height="6" rx="1" fill="#969696"/>
<rect x="50.213" y="26" width="5.76522" height="6" rx="1" fill="#969696"/>
</svg>
