<svg width="27" height="30" viewBox="0 0 27 30" fill="none" xmlns="http://www.w3.org/2000/svg">
<path d="M10.3125 25.3125C10.8098 25.3125 11.2867 25.115 11.6383 24.7633C11.99 24.4117 12.1875 23.9348 12.1875 23.4375C12.1875 22.9402 11.99 22.4633 11.6383 22.1117C11.2867 21.76 10.8098 21.5625 10.3125 21.5625H8.4375C7.94022 21.5625 7.46331 21.76 7.11168 22.1117C6.76004 22.4633 6.5625 22.9402 6.5625 23.4375C6.5625 23.9348 6.76004 24.4117 7.11168 24.7633C7.46331 25.115 7.94022 25.3125 8.4375 25.3125H10.3125ZM17.8125 14.0625C18.3098 14.0625 18.7867 13.865 19.1383 13.5133C19.49 13.1617 19.6875 12.6848 19.6875 12.1875C19.6875 11.6902 19.49 11.2133 19.1383 10.8617C18.7867 10.51 18.3098 10.3125 17.8125 10.3125H8.4375C7.94022 10.3125 7.46331 10.51 7.11168 10.8617C6.76004 11.2133 6.5625 11.6902 6.5625 12.1875C6.5625 12.6848 6.76004 13.1617 7.11168 13.5133C7.46331 13.865 7.94022 14.0625 8.4375 14.0625H17.8125ZM14.0625 19.6875C14.5598 19.6875 15.0367 19.49 15.3883 19.1383C15.74 18.7867 15.9375 18.3098 15.9375 17.8125C15.9375 17.3152 15.74 16.8383 15.3883 16.4867C15.0367 16.135 14.5598 15.9375 14.0625 15.9375H8.4375C7.94022 15.9375 7.46331 16.135 7.11168 16.4867C6.76004 16.8383 6.5625 17.3152 6.5625 17.8125C6.5625 18.3098 6.76004 18.7867 7.11168 19.1383C7.46331 19.49 7.94022 19.6875 8.4375 19.6875H14.0625Z" fill="black"/>
<path d="M5.625 2.8125H3.75C2.75544 2.8125 1.80161 3.20759 1.09835 3.91085C0.395088 4.61411 0 5.56794 0 6.5625V26.25C0 27.2446 0.395088 28.1984 1.09835 28.9016C1.80161 29.6049 2.75544 30 3.75 30H22.5C23.4946 30 24.4484 29.6049 25.1516 28.9016C25.8549 28.1984 26.25 27.2446 26.25 26.25V6.5625C26.25 5.56794 25.8549 4.61411 25.1516 3.91085C24.4484 3.20759 23.4946 2.8125 22.5 2.8125H20.625V4.6875H22.5C22.9973 4.6875 23.4742 4.88504 23.8258 5.23667C24.1775 5.58831 24.375 6.06522 24.375 6.5625V26.25C24.375 26.7473 24.1775 27.2242 23.8258 27.5758C23.4742 27.9275 22.9973 28.125 22.5 28.125H3.75C3.25272 28.125 2.77581 27.9275 2.42417 27.5758C2.07254 27.2242 1.875 26.7473 1.875 26.25V6.5625C1.875 6.06522 2.07254 5.58831 2.42417 5.23667C2.77581 4.88504 3.25272 4.6875 3.75 4.6875H5.625V2.8125Z" fill="black"/>
<path d="M15.9375 1.875C16.1861 1.875 16.4246 1.97377 16.6004 2.14959C16.7762 2.3254 16.875 2.56386 16.875 2.8125V4.6875C16.875 4.93614 16.7762 5.1746 16.6004 5.35041C16.4246 5.52623 16.1861 5.625 15.9375 5.625H10.3125C10.0639 5.625 9.8254 5.52623 9.64959 5.35041C9.47377 5.1746 9.375 4.93614 9.375 4.6875V2.8125C9.375 2.56386 9.47377 2.3254 9.64959 2.14959C9.8254 1.97377 10.0639 1.875 10.3125 1.875H15.9375ZM10.3125 0C9.56658 0 8.85121 0.296316 8.32376 0.823762C7.79632 1.35121 7.5 2.06658 7.5 2.8125V4.6875C7.5 5.43342 7.79632 6.14879 8.32376 6.67624C8.85121 7.20368 9.56658 7.5 10.3125 7.5H15.9375C16.6834 7.5 17.3988 7.20368 17.9262 6.67624C18.4537 6.14879 18.75 5.43342 18.75 4.6875V2.8125C18.75 2.06658 18.4537 1.35121 17.9262 0.823762C17.3988 0.296316 16.6834 0 15.9375 0L10.3125 0Z" fill="black"/>
</svg>
