<svg width="27" height="37" viewBox="0 0 27 37" fill="none" xmlns="http://www.w3.org/2000/svg">
<path d="M13 8C17.8 4.4 16.6667 1.83333 15.5 1" stroke="#960A0A" stroke-width="1.5"/>
<path d="M5.625 9.8125H3.75C2.75544 9.8125 1.80161 10.2076 1.09835 10.9108C0.395088 11.6141 0 12.5679 0 13.5625V33.25C0 34.2446 0.395088 35.1984 1.09835 35.9016C1.80161 36.6049 2.75544 37 3.75 37H22.5C23.4946 37 24.4484 36.6049 25.1516 35.9016C25.8549 35.1984 26.25 34.2446 26.25 33.25V13.5625C26.25 12.5679 25.8549 11.6141 25.1516 10.9108C24.4484 10.2076 23.4946 9.8125 22.5 9.8125H20.625V11.6875H22.5C22.9973 11.6875 23.4742 11.885 23.8258 12.2367C24.1775 12.5883 24.375 13.0652 24.375 13.5625V33.25C24.375 33.7473 24.1775 34.2242 23.8258 34.5758C23.4742 34.9275 22.9973 35.125 22.5 35.125H3.75C3.25272 35.125 2.77581 34.9275 2.42417 34.5758C2.07254 34.2242 1.875 33.7473 1.875 33.25V13.5625C1.875 13.0652 2.07254 12.5883 2.42417 12.2367C2.77581 11.885 3.25272 11.6875 3.75 11.6875H5.625V9.8125Z" fill="black"/>
<path d="M15.9375 8.875C16.1861 8.875 16.4246 8.97377 16.6004 9.14959C16.7762 9.3254 16.875 9.56386 16.875 9.8125V11.6875C16.875 11.9361 16.7762 12.1746 16.6004 12.3504C16.4246 12.5262 16.1861 12.625 15.9375 12.625H10.3125C10.0639 12.625 9.8254 12.5262 9.64959 12.3504C9.47377 12.1746 9.375 11.9361 9.375 11.6875V9.8125C9.375 9.56386 9.47377 9.3254 9.64959 9.14959C9.8254 8.97377 10.0639 8.875 10.3125 8.875H15.9375ZM10.3125 7C9.56658 7 8.85121 7.29632 8.32376 7.82376C7.79632 8.35121 7.5 9.06658 7.5 9.8125V11.6875C7.5 12.4334 7.79632 13.1488 8.32376 13.6762C8.85121 14.2037 9.56658 14.5 10.3125 14.5H15.9375C16.6834 14.5 17.3988 14.2037 17.9262 13.6762C18.4537 13.1488 18.75 12.4334 18.75 11.6875V9.8125C18.75 9.06658 18.4537 8.35121 17.9262 7.82376C17.3988 7.29632 16.6834 7 15.9375 7H10.3125Z" fill="black"/>
<rect x="4" y="21" width="18" height="12" rx="2" fill="#960A0A"/>
</svg>
